<svg width="221" height="42" viewBox="0 0 221 42" fill="none" xmlns="http://www.w3.org/2000/svg">
<circle cx="21" cy="21" r="20.5" stroke="white" stroke-opacity="0.2"/>
<path d="M26.0984 23.2518L22.6665 23.9167C20.3484 22.7533 18.9165 21.4167 18.0832 19.3334L18.7248 15.8917L17.512 12.6667L14.7295 12.6667C13.6019 12.6667 12.7147 13.5997 12.9011 14.7117C13.2989 17.0847 14.3723 21.0392 17.2499 23.9167C20.2734 26.9403 24.5661 28.3319 27.1378 28.9289C28.299 29.1985 29.3332 28.2909 29.3332 27.0989L29.3332 24.4844L26.0984 23.2518Z" stroke="#E5BF9B" stroke-width="1.5" stroke-linecap="round" stroke-linejoin="round"/>
<path d="M63.27 21.42H59.994V24.642H58.482V21.42H55.206V19.998H58.482V16.758H59.994V19.998H63.27V21.42ZM74.3448 14.4V15.624L69.2508 27H67.3428L72.3288 15.966H66.5688V18.216H64.8408V14.4H74.3448ZM83.7446 30.492C83.0606 29.388 82.5326 28.122 82.1606 26.694C81.7886 25.254 81.6026 23.712 81.6026 22.068C81.6026 20.424 81.7886 18.882 82.1606 17.442C82.5326 15.99 83.0606 14.724 83.7446 13.644H85.3826C84.6626 14.904 84.1346 16.224 83.7986 17.604C83.4626 18.984 83.2946 20.472 83.2946 22.068C83.2946 23.664 83.4626 25.152 83.7986 26.532C84.1346 27.912 84.6626 29.232 85.3826 30.492H83.7446ZM97.4315 23.904H95.0375V27H93.2915V23.904H86.2895V22.644L92.7335 14.4H94.6775L88.5035 22.356H93.3455V19.62H95.0375V22.356H97.4315V23.904ZM102.473 14.256C104.165 14.256 105.467 14.802 106.379 15.894C107.303 16.986 107.765 18.534 107.765 20.538C107.765 21.942 107.513 23.142 107.009 24.138C106.517 25.122 105.821 25.872 104.921 26.388C104.033 26.892 102.995 27.144 101.807 27.144C101.195 27.144 100.619 27.084 100.079 26.964C99.5394 26.832 99.0714 26.646 98.6754 26.406L99.3594 25.002C99.9714 25.398 100.781 25.596 101.789 25.596C103.097 25.596 104.117 25.194 104.849 24.39C105.593 23.574 105.965 22.392 105.965 20.844V20.394C105.605 20.934 105.107 21.348 104.471 21.636C103.835 21.912 103.121 22.05 102.329 22.05C101.501 22.05 100.757 21.894 100.097 21.582C99.4494 21.27 98.9394 20.826 98.5674 20.25C98.2074 19.662 98.0274 18.99 98.0274 18.234C98.0274 17.442 98.2194 16.746 98.6034 16.146C98.9994 15.546 99.5334 15.084 100.205 14.76C100.877 14.424 101.633 14.256 102.473 14.256ZM102.635 20.592C103.199 20.592 103.703 20.484 104.147 20.268C104.591 20.052 104.933 19.758 105.173 19.386C105.425 19.014 105.551 18.6 105.551 18.144C105.551 17.7 105.431 17.298 105.191 16.938C104.963 16.566 104.621 16.272 104.165 16.056C103.721 15.828 103.181 15.714 102.545 15.714C101.717 15.714 101.045 15.936 100.529 16.38C100.025 16.824 99.7734 17.418 99.7734 18.162C99.7734 18.906 100.031 19.5 100.547 19.944C101.063 20.376 101.759 20.592 102.635 20.592ZM113.097 19.422C114.897 19.422 116.217 19.764 117.057 20.448C117.909 21.12 118.335 22.044 118.335 23.22C118.335 23.964 118.155 24.636 117.795 25.236C117.447 25.824 116.913 26.292 116.193 26.64C115.485 26.976 114.609 27.144 113.565 27.144C112.677 27.144 111.819 27.012 110.991 26.748C110.163 26.472 109.479 26.094 108.939 25.614L109.767 24.192C110.199 24.6 110.751 24.93 111.423 25.182C112.095 25.422 112.803 25.542 113.547 25.542C114.495 25.542 115.227 25.344 115.743 24.948C116.271 24.54 116.535 23.988 116.535 23.292C116.535 22.536 116.247 21.966 115.671 21.582C115.095 21.186 114.111 20.988 112.719 20.988H109.857L110.523 14.4H117.633V15.966H112.035L111.693 19.422H113.097ZM119.545 30.492C120.265 29.232 120.793 27.912 121.129 26.532C121.477 25.152 121.651 23.664 121.651 22.068C121.651 20.472 121.477 18.984 121.129 17.604C120.793 16.224 120.265 14.904 119.545 13.644H121.183C121.879 14.724 122.413 15.984 122.785 17.424C123.157 18.864 123.343 20.412 123.343 22.068C123.343 23.712 123.157 25.254 122.785 26.694C122.413 28.134 121.879 29.4 121.183 30.492H119.545ZM139.605 25.434V27H130.551V25.776L135.681 20.826C136.305 20.226 136.725 19.71 136.941 19.278C137.157 18.834 137.265 18.39 137.265 17.946C137.265 17.286 137.031 16.776 136.563 16.416C136.107 16.044 135.447 15.858 134.583 15.858C133.191 15.858 132.117 16.314 131.361 17.226L130.137 16.164C130.629 15.564 131.271 15.096 132.063 14.76C132.867 14.424 133.761 14.256 134.745 14.256C136.065 14.256 137.115 14.574 137.895 15.21C138.675 15.834 139.065 16.686 139.065 17.766C139.065 18.438 138.921 19.074 138.633 19.674C138.345 20.274 137.799 20.958 136.995 21.726L133.143 25.434H139.605ZM144.685 19.422C146.485 19.422 147.805 19.764 148.645 20.448C149.497 21.12 149.923 22.044 149.923 23.22C149.923 23.964 149.743 24.636 149.383 25.236C149.035 25.824 148.501 26.292 147.781 26.64C147.073 26.976 146.197 27.144 145.153 27.144C144.265 27.144 143.407 27.012 142.579 26.748C141.751 26.472 141.067 26.094 140.527 25.614L141.355 24.192C141.787 24.6 142.339 24.93 143.011 25.182C143.683 25.422 144.391 25.542 145.135 25.542C146.083 25.542 146.815 25.344 147.331 24.948C147.859 24.54 148.123 23.988 148.123 23.292C148.123 22.536 147.835 21.966 147.259 21.582C146.683 21.186 145.699 20.988 144.307 20.988H141.445L142.111 14.4H149.221V15.966H143.623L143.281 19.422H144.685ZM154.933 19.422C156.733 19.422 158.053 19.764 158.893 20.448C159.745 21.12 160.171 22.044 160.171 23.22C160.171 23.964 159.991 24.636 159.631 25.236C159.283 25.824 158.749 26.292 158.029 26.64C157.321 26.976 156.445 27.144 155.401 27.144C154.513 27.144 153.655 27.012 152.827 26.748C151.999 26.472 151.315 26.094 150.775 25.614L151.603 24.192C152.035 24.6 152.587 24.93 153.259 25.182C153.931 25.422 154.639 25.542 155.383 25.542C156.331 25.542 157.063 25.344 157.579 24.948C158.107 24.54 158.371 23.988 158.371 23.292C158.371 22.536 158.083 21.966 157.507 21.582C156.931 21.186 155.947 20.988 154.555 20.988H151.693L152.359 14.4H159.469V15.966H153.871L153.529 19.422H154.933ZM161.831 21.312H166.673V22.806H161.831V21.312ZM179.644 23.904H177.25V27H175.504V23.904H168.502V22.644L174.946 14.4H176.89L170.716 22.356H175.558V19.62H177.25V22.356H179.644V23.904ZM188.603 20.394C189.323 20.67 189.875 21.066 190.259 21.582C190.643 22.098 190.835 22.716 190.835 23.436C190.835 24.192 190.631 24.852 190.223 25.416C189.815 25.968 189.233 26.394 188.477 26.694C187.721 26.994 186.833 27.144 185.813 27.144C184.805 27.144 183.923 26.994 183.167 26.694C182.423 26.394 181.847 25.968 181.439 25.416C181.031 24.852 180.827 24.192 180.827 23.436C180.827 22.716 181.013 22.098 181.385 21.582C181.769 21.066 182.321 20.67 183.041 20.394C182.465 20.118 182.027 19.752 181.727 19.296C181.427 18.84 181.277 18.3 181.277 17.676C181.277 16.98 181.463 16.374 181.835 15.858C182.219 15.342 182.753 14.946 183.437 14.67C184.121 14.394 184.913 14.256 185.813 14.256C186.725 14.256 187.523 14.394 188.207 14.67C188.903 14.946 189.437 15.342 189.809 15.858C190.193 16.374 190.385 16.98 190.385 17.676C190.385 18.288 190.229 18.828 189.917 19.296C189.617 19.752 189.179 20.118 188.603 20.394ZM185.813 15.714C184.961 15.714 184.289 15.9 183.797 16.272C183.305 16.632 183.059 17.124 183.059 17.748C183.059 18.372 183.299 18.864 183.779 19.224C184.271 19.584 184.949 19.764 185.813 19.764C186.689 19.764 187.373 19.584 187.865 19.224C188.369 18.864 188.621 18.372 188.621 17.748C188.621 17.124 188.363 16.632 187.847 16.272C187.343 15.9 186.665 15.714 185.813 15.714ZM185.813 25.686C186.809 25.686 187.595 25.482 188.171 25.074C188.747 24.654 189.035 24.09 189.035 23.382C189.035 22.686 188.747 22.14 188.171 21.744C187.595 21.336 186.809 21.132 185.813 21.132C184.817 21.132 184.037 21.336 183.473 21.744C182.909 22.14 182.627 22.686 182.627 23.382C182.627 24.09 182.909 24.654 183.473 25.074C184.037 25.482 184.817 25.686 185.813 25.686ZM192.645 21.312H197.487V22.806H192.645V21.312ZM208.001 25.434V27H198.947V25.776L204.077 20.826C204.701 20.226 205.121 19.71 205.337 19.278C205.553 18.834 205.661 18.39 205.661 17.946C205.661 17.286 205.427 16.776 204.959 16.416C204.503 16.044 203.843 15.858 202.979 15.858C201.587 15.858 200.513 16.314 199.757 17.226L198.533 16.164C199.025 15.564 199.667 15.096 200.459 14.76C201.263 14.424 202.157 14.256 203.141 14.256C204.461 14.256 205.511 14.574 206.291 15.21C207.071 15.834 207.461 16.686 207.461 17.766C207.461 18.438 207.317 19.074 207.029 19.674C206.741 20.274 206.195 20.958 205.391 21.726L201.539 25.434H208.001ZM220.109 23.904H217.715V27H215.969V23.904H208.967V22.644L215.411 14.4H217.355L211.181 22.356H216.023V19.62H217.715V22.356H220.109V23.904Z" fill="white"/>
</svg>
